<svg width="20" height="20" viewBox="0 0 20 20" fill="none" xmlns="http://www.w3.org/2000/svg">
<g clip-path="url(#clip0_0_1265)">
<path fill-rule="evenodd" clip-rule="evenodd" d="M3.05967 0.840465C3.17079 0.848971 3.32564 0.870617 3.49152 0.946423C3.7096 1.04609 3.89442 1.20638 4.02393 1.40819C4.12244 1.56167 4.16576 1.71191 4.1899 1.82071C4.21039 1.9131 4.22535 2.01811 4.2376 2.1041C4.23843 2.10989 4.23924 2.11559 4.24004 2.12119L4.53225 4.16666L17.5497 4.16665C17.6681 4.16661 17.8047 4.16656 17.9232 4.17689C18.0565 4.18851 18.2567 4.21868 18.4592 4.3367C18.7152 4.48587 18.9098 4.72108 19.0084 5.00041C19.0865 5.2214 19.0787 5.42374 19.0651 5.55685C19.0531 5.67518 19.0275 5.80936 19.0053 5.92566L17.8928 11.7661C17.8239 12.1281 17.7638 12.4436 17.6941 12.7029C17.6198 12.979 17.5207 13.2481 17.3466 13.5011C17.0835 13.8831 16.7194 14.1844 16.2949 14.3713C16.0139 14.4951 15.731 14.542 15.4458 14.5633C15.178 14.5833 14.8569 14.5833 14.4884 14.5833H7.29892C6.91153 14.5833 6.5748 14.5833 6.2949 14.5618C5.99754 14.539 5.70238 14.4887 5.41154 14.355C4.9737 14.1539 4.60332 13.8305 4.34497 13.4238C4.17336 13.1536 4.08367 12.8679 4.02096 12.5763C3.96192 12.3019 3.91654 11.9682 3.86433 11.5844L2.98415 5.11508L2.61057 2.49999H1.66665C1.20641 2.49999 0.833313 2.12689 0.833313 1.66666C0.833313 1.20642 1.20641 0.833322 1.66665 0.833322H2.75512C2.76078 0.833322 2.76654 0.83332 2.77238 0.833318C2.85924 0.833284 2.96531 0.833242 3.05967 0.840465ZM4.76389 5.83332L5.51181 11.3305C5.56914 11.7519 5.6064 12.0215 5.65035 12.2258C5.69212 12.42 5.72797 12.4926 5.75182 12.5301C5.83794 12.6657 5.9614 12.7735 6.10734 12.8406C6.14776 12.8591 6.22451 12.8849 6.42253 12.9001C6.63094 12.9161 6.90307 12.9167 7.3284 12.9167H14.46C14.8651 12.9167 15.1234 12.9161 15.3217 12.9013C15.5095 12.8873 15.5834 12.8636 15.6233 12.846C15.7648 12.7837 15.8862 12.6833 15.9738 12.5559C15.9986 12.52 16.0357 12.4518 16.0846 12.27C16.1363 12.0779 16.1851 11.8243 16.2609 11.4264L17.3263 5.83332H4.76389ZM5.83331 17.5C5.83331 16.5795 6.5795 15.8333 7.49998 15.8333C8.42045 15.8333 9.16665 16.5795 9.16665 17.5C9.16665 18.4205 8.42045 19.1667 7.49998 19.1667C6.5795 19.1667 5.83331 18.4205 5.83331 17.5ZM12.5 17.5C12.5 16.5795 13.2462 15.8333 14.1666 15.8333C15.0871 15.8333 15.8333 16.5795 15.8333 17.5C15.8333 18.4205 15.0871 19.1667 14.1666 19.1667C13.2462 19.1667 12.5 18.4205 12.5 17.5Z" fill="#A4A4A4"/>
</g>
<defs>
<clipPath id="clip0_0_1265">
<rect width="20" height="20" fill="white"/>
</clipPath>
</defs>
</svg>
