<svg width="24" height="24" viewBox="0 0 24 24" fill="none" xmlns="http://www.w3.org/2000/svg">
<path d="M10 14L14 10M3 7C3 5.89543 3.89543 5 5 5H19C20.1046 5 21 5.89543 21 7V9C21 9.55228 20.5255 9.97928 20.041 10.2445C19.4207 10.5841 19 11.2429 19 12C19 12.7571 19.4207 13.4159 20.041 13.7555C20.5255 14.0207 21 14.4477 21 15V17C21 18.1046 20.1046 19 19 19H5C3.89543 19 3 18.1046 3 17V15C3 14.4477 3.47452 14.0207 3.95897 13.7555C4.57933 13.4159 5 12.7571 5 12C5 11.2429 4.57933 10.5841 3.95897 10.2445C3.47452 9.97928 3 9.55228 3 9V7Z" stroke="#838383" stroke-width="1.5" stroke-linecap="round" stroke-linejoin="round"/>
<path d="M14.5 15.25C14.0858 15.25 13.75 14.9142 13.75 14.5C13.75 14.0858 14.0858 13.75 14.5 13.75C14.9142 13.75 15.25 14.0858 15.25 14.5C15.25 14.9142 14.9142 15.25 14.5 15.25ZM9.5 10.25C9.08579 10.25 8.75 9.91421 8.75 9.5C8.75 9.08579 9.08579 8.75 9.5 8.75C9.91421 8.75 10.25 9.08579 10.25 9.5C10.25 9.91421 9.91421 10.25 9.5 10.25Z" stroke="#838383" stroke-width="1.5"/>
</svg>
