<svg width="21" height="20" viewBox="0 0 21 20" fill="none" xmlns="http://www.w3.org/2000/svg">
<path d="M18 10.6583C17.8689 12.0768 17.3366 13.4287 16.4652 14.5557C15.5939 15.6826 14.4196 16.5382 13.0798 17.0221C11.7399 17.5061 10.29 17.5984 8.89959 17.2884C7.50919 16.9784 6.23584 16.2788 5.22853 15.2715C4.22122 14.2642 3.52163 12.9908 3.2116 11.6004C2.90157 10.21 2.99394 8.76007 3.47789 7.42025C3.96185 6.08042 4.81737 4.90614 5.94435 4.03479C7.07134 3.16345 8.42317 2.63109 9.84168 2.5C9.01119 3.62356 8.61155 5.00787 8.71545 6.40118C8.81935 7.79448 9.41989 9.10422 10.4078 10.0922C11.3958 11.0801 12.7055 11.6807 14.0988 11.7846C15.4921 11.8885 16.8765 11.4888 18 10.6583V10.6583Z" stroke="#0E1726" stroke-width="1.5" stroke-linecap="round" stroke-linejoin="round"/>
</svg>
