<svg width="17" height="16" viewBox="0 0 17 16" fill="none" xmlns="http://www.w3.org/2000/svg">
<path fill-rule="evenodd" clip-rule="evenodd" d="M5.33315 2.51526C7.15681 1.46237 9.28672 1.42014 11.0726 2.21242C11.4091 2.36173 11.5609 2.7556 11.4116 3.09216C11.2623 3.42871 10.8684 3.5805 10.5318 3.43119C9.11882 2.80431 7.43879 2.83917 5.99981 3.66996C3.89574 4.88475 3.00861 7.39789 3.76614 9.61312L3.82772 9.38331C3.92301 9.02766 4.28857 8.81661 4.64422 8.9119C4.99986 9.0072 5.21092 9.37276 5.11562 9.7284L4.62759 11.5498C4.58183 11.7206 4.47009 11.8662 4.31697 11.9546C4.16385 12.043 3.98188 12.0669 3.81109 12.0212L1.98972 11.5331C1.63408 11.4378 1.42302 11.0723 1.51832 10.7166C1.61361 10.361 1.97917 10.1499 2.33482 10.2452L2.6048 10.3176C1.47236 7.4475 2.58073 4.10437 5.33315 2.51526ZM12.3725 4.44998C12.4678 4.09433 12.8334 3.88328 13.189 3.97857L15.0104 4.4666C15.366 4.5619 15.5771 4.92746 15.4818 5.2831C15.3865 5.63874 15.0209 5.8498 14.6653 5.75451L14.395 5.68208C15.5277 8.55225 14.4194 11.8956 11.6668 13.4848C9.84312 14.5377 7.71321 14.58 5.92738 13.7877C5.59083 13.6384 5.43904 13.2445 5.58835 12.9079C5.73766 12.5714 6.13153 12.4196 6.46809 12.5689C7.88111 13.1958 9.56114 13.1609 11.0001 12.3301C13.1042 11.1154 13.9913 8.60229 13.2338 6.38708L13.1724 6.61643C13.0771 6.97208 12.7115 7.18313 12.3559 7.08784C12.0002 6.99254 11.7892 6.62699 11.8845 6.27134L12.3725 4.44998Z" fill="#3C6CE7"/>
</svg>
