<svg width="16" height="16" viewBox="0 0 16 16" fill="none" xmlns="http://www.w3.org/2000/svg">
<path fill-rule="evenodd" clip-rule="evenodd" d="M10.8619 1.52861C11.8587 0.531884 13.4747 0.531886 14.4714 1.52861C15.4681 2.52534 15.4681 4.14136 14.4714 5.13809L5.6672 13.9423C5.65602 13.9534 5.64495 13.9645 5.63396 13.9755C5.4707 14.1391 5.32668 14.2833 5.15557 14.3961C5.00513 14.4954 4.84197 14.5738 4.67053 14.6293C4.47552 14.6924 4.27292 14.7147 4.04323 14.7401C4.02778 14.7418 4.01221 14.7435 3.99651 14.7452L1.74026 14.9959C1.53898 15.0183 1.33844 14.948 1.19524 14.8048C1.05203 14.6616 0.981687 14.461 1.00405 14.2597L1.25475 12.0035C1.25649 11.9878 1.25821 11.9722 1.25991 11.9567C1.28525 11.7271 1.3076 11.5245 1.37072 11.3295C1.42622 11.158 1.50464 10.9949 1.60385 10.8444C1.71668 10.6733 1.86093 10.5293 2.02445 10.366C2.03546 10.355 2.04655 10.344 2.05772 10.3328L10.8619 1.52861ZM13.5286 2.47142C13.0526 1.99539 12.2808 1.99539 11.8047 2.47142L3.00053 11.2756C2.78553 11.4906 2.74561 11.535 2.71695 11.5784C2.68388 11.6286 2.65774 11.683 2.63924 11.7401C2.62321 11.7896 2.6135 11.8485 2.57992 12.1507L2.42126 13.5787L3.84926 13.4201C4.15146 13.3865 4.21034 13.3768 4.25988 13.3608C4.31703 13.3422 4.37141 13.3161 4.42156 13.283C4.46502 13.2544 4.50938 13.2145 4.72439 12.9995L13.5286 4.19528C14.0046 3.71925 14.0046 2.94745 13.5286 2.47142Z" fill="#3C6CE7"/>
</svg>
