<svg width="17" height="16" viewBox="0 0 17 16" fill="none" xmlns="http://www.w3.org/2000/svg">
<path fill-rule="evenodd" clip-rule="evenodd" d="M6.33913 0.666687H10.6609C11.1975 0.666679 11.6404 0.666672 12.0012 0.69615C12.3759 0.726767 12.7204 0.792476 13.044 0.957337C13.5457 1.213 13.9537 1.62095 14.2094 2.12271C14.3742 2.44627 14.4399 2.79074 14.4705 3.16547C14.5 3.52626 14.5 3.96917 14.5 4.50581V11.4942C14.5 12.0309 14.5 12.4738 14.4705 12.8346C14.4399 13.2093 14.3742 13.5538 14.2094 13.8773C13.9537 14.3791 13.5457 14.787 13.044 15.0427C12.7204 15.2076 12.3759 15.2733 12.0012 15.3039C11.6404 15.3334 11.1975 15.3334 10.6609 15.3334H6.33912C5.80248 15.3334 5.35958 15.3334 4.99878 15.3039C4.62405 15.2733 4.27958 15.2076 3.95603 15.0427C3.45426 14.787 3.04631 14.3791 2.79065 13.8773C2.62579 13.5538 2.56008 13.2093 2.52946 12.8346C2.49998 12.4738 2.49999 12.0309 2.5 11.4942V4.50582C2.49999 3.96917 2.49998 3.52627 2.52946 3.16547C2.56008 2.79074 2.62579 2.44627 2.79065 2.12271C3.04631 1.62095 3.45426 1.213 3.95603 0.957337C4.27958 0.792476 4.62405 0.726767 4.99878 0.69615C5.35958 0.666672 5.80249 0.666679 6.33913 0.666687ZM5.10736 2.02506C4.81508 2.04894 4.66561 2.09222 4.56135 2.14535C4.31046 2.27318 4.10649 2.47715 3.97866 2.72803C3.92553 2.8323 3.88225 2.98177 3.85837 3.27405C3.83385 3.57411 3.83333 3.9623 3.83333 4.53335V11.4667C3.83333 12.0377 3.83385 12.4259 3.85837 12.726C3.88225 13.0183 3.92553 13.1677 3.97866 13.272C4.10649 13.5229 4.31046 13.7269 4.56135 13.8547C4.66561 13.9078 4.81508 13.9511 5.10736 13.975C5.40742 13.9995 5.79561 14 6.36667 14H10.6333C11.2044 14 11.5926 13.9995 11.8926 13.975C12.1849 13.9511 12.3344 13.9078 12.4387 13.8547C12.6895 13.7269 12.8935 13.5229 13.0213 13.272C13.0745 13.1677 13.1178 13.0183 13.1416 12.726C13.1661 12.4259 13.1667 12.0377 13.1667 11.4667V4.53335C13.1667 3.9623 13.1661 3.57411 13.1416 3.27405C13.1178 2.98177 13.0745 2.8323 13.0213 2.72803C12.8935 2.47715 12.6895 2.27318 12.4387 2.14535C12.3344 2.09222 12.1849 2.04894 11.8926 2.02506C11.5926 2.00054 11.2044 2.00002 10.6333 2.00002H6.36667C5.79561 2.00002 5.40742 2.00054 5.10736 2.02506ZM5.16667 4.66669C5.16667 4.2985 5.46514 4.00002 5.83333 4.00002H11.1667C11.5349 4.00002 11.8333 4.2985 11.8333 4.66669C11.8333 5.03488 11.5349 5.33335 11.1667 5.33335H5.83333C5.46514 5.33335 5.16667 5.03488 5.16667 4.66669ZM5.16667 7.33335C5.16667 6.96516 5.46514 6.66669 5.83333 6.66669H9.83333C10.2015 6.66669 10.5 6.96516 10.5 7.33335C10.5 7.70154 10.2015 8.00002 9.83333 8.00002H5.83333C5.46514 8.00002 5.16667 7.70154 5.16667 7.33335ZM5.16667 10C5.16667 9.63183 5.46514 9.33335 5.83333 9.33335H7.16667C7.53486 9.33335 7.83333 9.63183 7.83333 10C7.83333 10.3682 7.53486 10.6667 7.16667 10.6667H5.83333C5.46514 10.6667 5.16667 10.3682 5.16667 10Z" fill="#3C6CE7"/>
</svg>
