<svg width="24" height="24" viewBox="0 0 24 24" fill="none" xmlns="http://www.w3.org/2000/svg">
<path d="M3.3167 19.5455L6.23095 16.6313C6.72695 16.1353 7.53111 16.1353 8.02711 16.6313C8.5231 17.1273 9.32727 17.1273 9.82327 16.6313L11.6323 14.8222C12.3777 14.0769 13.5736 14.038 14.3659 14.7334L17 17.0455M17 17H18C19.6568 17 21 15.6569 21 14V6.00002C21 4.34316 19.6568 3.00002 18 3.00002H9.99998C8.34313 3.00002 6.99998 4.34316 6.99998 6.00002V7.00001M6 21H14C15.6569 21 17 19.6569 17 18V10C17 8.34316 15.6569 7.00002 14 7.00002H6C4.34315 7.00002 3 8.34316 3 10V18C3 19.6569 4.34315 21 6 21ZM10 12.0455C10 12.8739 9.32843 13.5455 8.5 13.5455C7.67157 13.5455 7 12.8739 7 12.0455C7 11.2171 7.67157 10.5455 8.5 10.5455C9.32843 10.5455 10 11.2171 10 12.0455Z" stroke="#838383" stroke-width="1.5" stroke-linecap="round" stroke-linejoin="round"/>
</svg>
