<svg width="20" height="20" viewBox="0 0 20 20" fill="none" xmlns="http://www.w3.org/2000/svg">
<path fill-rule="evenodd" clip-rule="evenodd" d="M3.80678 1.66669C3.81563 1.66669 3.82449 1.66669 3.83336 1.66669H7.00002C7.00889 1.66669 7.01775 1.66669 7.02661 1.66669C7.23693 1.66666 7.44175 1.66664 7.61522 1.68081C7.80571 1.69638 8.03049 1.7331 8.25668 1.84835C8.57028 2.00814 8.82525 2.2631 8.98503 2.57671C9.10028 2.80289 9.13701 3.02767 9.15257 3.21817C9.16674 3.39164 9.16672 3.59647 9.16669 3.80679V7.02659C9.16672 7.23692 9.16674 7.44175 9.15257 7.61522C9.13701 7.80571 9.10028 8.03049 8.98503 8.25668C8.82525 8.57028 8.57028 8.82525 8.25668 8.98503C8.03049 9.10028 7.80571 9.13701 7.61522 9.15257C7.44175 9.16674 7.23692 9.16672 7.02659 9.16669H3.80679C3.59647 9.16672 3.39164 9.16674 3.21817 9.15257C3.02767 9.13701 2.80289 9.10028 2.57671 8.98503C2.2631 8.82525 2.00814 8.57028 1.84835 8.25668C1.7331 8.03049 1.69638 7.80571 1.68081 7.61522C1.66664 7.44175 1.66666 7.23693 1.66669 7.02661C1.66669 7.01775 1.66669 7.00889 1.66669 7.00002V3.83336C1.66669 3.82449 1.66669 3.81563 1.66669 3.80678C1.66666 3.59646 1.66664 3.39163 1.68081 3.21817C1.69638 3.02767 1.7331 2.80289 1.84835 2.57671C2.00814 2.2631 2.2631 2.00814 2.57671 1.84835C2.80289 1.7331 3.02767 1.69638 3.21817 1.68081C3.39163 1.66664 3.59646 1.66666 3.80678 1.66669ZM3.3429 3.3429C3.34258 3.34636 3.34226 3.35002 3.34194 3.35389C3.33401 3.45104 3.33336 3.58625 3.33336 3.83336V7.00002C3.33336 7.24713 3.33401 7.38234 3.34194 7.4795C3.34226 7.48337 3.34258 7.48703 3.3429 7.49048C3.34636 7.4908 3.35002 7.49112 3.35389 7.49144C3.45104 7.49938 3.58625 7.50002 3.83336 7.50002H7.00002C7.24713 7.50002 7.38234 7.49938 7.4795 7.49144C7.48337 7.49112 7.48703 7.4908 7.49048 7.49048C7.4908 7.48703 7.49112 7.48337 7.49144 7.4795C7.49938 7.38234 7.50002 7.24713 7.50002 7.00002V3.83336C7.50002 3.58625 7.49938 3.45104 7.49144 3.35389C7.49112 3.35002 7.4908 3.34636 7.49048 3.3429C7.48703 3.34258 7.48337 3.34226 7.4795 3.34194C7.38234 3.33401 7.24713 3.33336 7.00002 3.33336H3.83336C3.58625 3.33336 3.45104 3.33401 3.35389 3.34194C3.35002 3.34226 3.34636 3.34258 3.3429 3.3429ZM12.9734 1.66669H16.1933C16.4036 1.66666 16.6084 1.66664 16.7819 1.68081C16.9724 1.69638 17.1972 1.7331 17.4233 1.84835C17.7369 2.00814 17.9919 2.2631 18.1517 2.57671C18.267 2.80289 18.3037 3.02767 18.3192 3.21817C18.3334 3.39163 18.3334 3.59645 18.3334 3.80676V7.02662C18.3334 7.23693 18.3334 7.44175 18.3192 7.61522C18.3037 7.80571 18.267 8.03049 18.1517 8.25668C17.9919 8.57028 17.7369 8.82525 17.4233 8.98503C17.1972 9.10028 16.9724 9.13701 16.7819 9.15257C16.6084 9.16674 16.4036 9.16672 16.1933 9.16669H12.9735C12.7631 9.16672 12.5583 9.16674 12.3848 9.15257C12.1943 9.13701 11.9696 9.10028 11.7434 8.98503C11.4298 8.82525 11.1748 8.57028 11.015 8.25668C10.8998 8.03049 10.863 7.80571 10.8475 7.61522C10.8333 7.44175 10.8333 7.23692 10.8334 7.02659V3.80679C10.8333 3.59647 10.8333 3.39164 10.8475 3.21817C10.863 3.02767 10.8998 2.80289 11.015 2.57671C11.1748 2.2631 11.4298 2.00814 11.7434 1.84835C11.9696 1.7331 12.1943 1.69638 12.3848 1.68081C12.5583 1.66664 12.7631 1.66666 12.9734 1.66669ZM12.5096 3.3429C12.5092 3.34636 12.5089 3.35002 12.5086 3.35389C12.5007 3.45104 12.5 3.58625 12.5 3.83336V7.00002C12.5 7.24713 12.5007 7.38234 12.5086 7.4795C12.5089 7.48337 12.5092 7.48703 12.5096 7.49048C12.513 7.4908 12.5167 7.49112 12.5206 7.49144C12.6177 7.49938 12.7529 7.50002 13 7.50002H16.1667C16.4138 7.50002 16.549 7.49938 16.6462 7.49144C16.65 7.49112 16.6537 7.4908 16.6572 7.49048C16.6575 7.48702 16.6578 7.48336 16.6581 7.4795C16.666 7.38234 16.6667 7.24713 16.6667 7.00002V3.83336C16.6667 3.58625 16.666 3.45104 16.6581 3.35389C16.6578 3.35002 16.6575 3.34635 16.6571 3.3429C16.6537 3.34258 16.65 3.34226 16.6462 3.34194C16.549 3.33401 16.4138 3.33336 16.1667 3.33336H13C12.7529 3.33336 12.6177 3.33401 12.5206 3.34194C12.5167 3.34226 12.513 3.34258 12.5096 3.3429ZM3.80679 10.8334H7.02659C7.23692 10.8333 7.44175 10.8333 7.61522 10.8475C7.80571 10.863 8.03049 10.8998 8.25668 11.015C8.57028 11.1748 8.82525 11.4298 8.98503 11.7434C9.10028 11.9696 9.13701 12.1943 9.15257 12.3848C9.16674 12.5583 9.16672 12.7631 9.16669 12.9735V16.1933C9.16672 16.4036 9.16674 16.6084 9.15257 16.7819C9.13701 16.9724 9.10028 17.1972 8.98503 17.4233C8.82525 17.7369 8.57028 17.9919 8.25668 18.1517C8.03049 18.267 7.80571 18.3037 7.61522 18.3192C7.44175 18.3334 7.23693 18.3334 7.02662 18.3334H3.80676C3.59645 18.3334 3.39163 18.3334 3.21817 18.3192C3.02767 18.3037 2.80289 18.267 2.57671 18.1517C2.2631 17.9919 2.00814 17.7369 1.84835 17.4233C1.7331 17.1972 1.69638 16.9724 1.68081 16.7819C1.66664 16.6084 1.66666 16.4036 1.66669 16.1933V12.9734C1.66666 12.7631 1.66664 12.5583 1.68081 12.3848C1.69638 12.1943 1.7331 11.9696 1.84835 11.7434C2.00814 11.4298 2.2631 11.1748 2.57671 11.015C2.80289 10.8998 3.02767 10.863 3.21817 10.8475C3.39164 10.8333 3.59647 10.8333 3.80679 10.8334ZM3.3429 12.5096C3.34258 12.513 3.34226 12.5167 3.34194 12.5206C3.33401 12.6177 3.33336 12.7529 3.33336 13V16.1667C3.33336 16.4138 3.33401 16.549 3.34194 16.6462C3.34226 16.65 3.34258 16.6537 3.3429 16.6571C3.34635 16.6575 3.35002 16.6578 3.35389 16.6581C3.45104 16.666 3.58625 16.6667 3.83336 16.6667H7.00002C7.24713 16.6667 7.38234 16.666 7.4795 16.6581C7.48336 16.6578 7.48703 16.6575 7.49049 16.6571C7.4908 16.6537 7.49112 16.65 7.49144 16.6462C7.49938 16.549 7.50002 16.4138 7.50002 16.1667V13C7.50002 12.7529 7.49938 12.6177 7.49144 12.5206C7.49112 12.5167 7.4908 12.513 7.49048 12.5096C7.48703 12.5092 7.48337 12.5089 7.4795 12.5086C7.38234 12.5007 7.24713 12.5 7.00002 12.5H3.83336C3.58625 12.5 3.45104 12.5007 3.35389 12.5086C3.35002 12.5089 3.34636 12.5092 3.3429 12.5096ZM12.9735 10.8334H16.1933C16.4036 10.8333 16.6084 10.8333 16.7819 10.8475C16.9724 10.863 17.1972 10.8998 17.4233 11.015C17.7369 11.1748 17.9919 11.4298 18.1517 11.7434C18.267 11.9696 18.3037 12.1943 18.3192 12.3848C18.3334 12.5583 18.3334 12.7631 18.3334 12.9734V16.1933C18.3334 16.4036 18.3334 16.6084 18.3192 16.7819C18.3037 16.9724 18.267 17.1972 18.1517 17.4233C17.9919 17.7369 17.7369 17.9919 17.4233 18.1517C17.1972 18.267 16.9724 18.3037 16.7819 18.3192C16.6084 18.3334 16.4036 18.3334 16.1933 18.3334H12.9734C12.7631 18.3334 12.5583 18.3334 12.3848 18.3192C12.1943 18.3037 11.9696 18.267 11.7434 18.1517C11.4298 17.9919 11.1748 17.7369 11.015 17.4233C10.8998 17.1972 10.863 16.9724 10.8475 16.7819C10.8333 16.6084 10.8333 16.4036 10.8334 16.1933V12.9735C10.8333 12.7631 10.8333 12.5583 10.8475 12.3848C10.863 12.1943 10.8998 11.9696 11.015 11.7434C11.1748 11.4298 11.4298 11.1748 11.7434 11.015C11.9696 10.8998 12.1943 10.863 12.3848 10.8475C12.5583 10.8333 12.7631 10.8333 12.9735 10.8334ZM12.5096 12.5096C12.5092 12.513 12.5089 12.5167 12.5086 12.5206C12.5007 12.6177 12.5 12.7529 12.5 13V16.1667C12.5 16.4138 12.5007 16.549 12.5086 16.6462C12.5089 16.65 12.5092 16.6537 12.5096 16.6571C12.513 16.6575 12.5167 16.6578 12.5206 16.6581C12.6177 16.666 12.7529 16.6667 13 16.6667H16.1667C16.4138 16.6667 16.549 16.666 16.6462 16.6581C16.65 16.6578 16.6537 16.6575 16.6572 16.6571C16.6575 16.6537 16.6578 16.65 16.6581 16.6462C16.666 16.549 16.6667 16.4138 16.6667 16.1667V13C16.6667 12.7529 16.666 12.6177 16.6581 12.5206C16.6578 12.5167 16.6575 12.513 16.6571 12.5096C16.6537 12.5092 16.65 12.5089 16.6462 12.5086C16.549 12.5007 16.4138 12.5 16.1667 12.5H13C12.7529 12.5 12.6177 12.5007 12.5206 12.5086C12.5167 12.5089 12.513 12.5092 12.5096 12.5096Z" fill="#838383"/>
</svg>
