<svg width="17" height="16" viewBox="0 0 17 16" fill="none" xmlns="http://www.w3.org/2000/svg">
<path fill-rule="evenodd" clip-rule="evenodd" d="M8.15155 0.890945C8.37975 0.829158 8.62027 0.829158 8.84847 0.890945C9.11339 0.962672 9.33642 1.13778 9.51443 1.27753C9.53142 1.29087 9.548 1.30389 9.56418 1.31647L14.0857 4.83322C14.1031 4.84676 14.1204 4.86017 14.1375 4.87346C14.3886 5.06831 14.6098 5.23998 14.7747 5.46285C14.9193 5.65844 15.0271 5.87877 15.0927 6.11304C15.1674 6.37999 15.1671 6.65999 15.1667 6.97782C15.1667 6.99951 15.1667 7.02137 15.1667 7.04341V11.8924C15.1667 12.2438 15.1667 12.547 15.1463 12.7967C15.1248 13.0603 15.0772 13.3224 14.9487 13.5747C14.7569 13.951 14.451 14.257 14.0747 14.4487C13.8224 14.5772 13.5603 14.6248 13.2967 14.6463C13.047 14.6667 12.7438 14.6667 12.3924 14.6667H11.0333C11.0283 14.6667 11.0231 14.6667 11.0179 14.6667C10.9385 14.6667 10.8437 14.6668 10.7601 14.6599C10.6633 14.652 10.5247 14.6317 10.3794 14.5577C10.1912 14.4618 10.0382 14.3088 9.94234 14.1207C9.86831 13.9754 9.84801 13.8367 9.8401 13.7399C9.83327 13.6564 9.83331 13.5615 9.83334 13.4821L9.83335 9.0667C9.83335 8.86901 9.83283 8.76084 9.82648 8.68312C9.82622 8.68002 9.82597 8.6771 9.82571 8.67433C9.82295 8.67407 9.82002 8.67382 9.81692 8.67357C9.7392 8.66721 9.63103 8.6667 9.43334 8.6667H7.56668C7.36899 8.6667 7.26082 8.66721 7.1831 8.67357C7.18001 8.67382 7.17708 8.67407 7.17431 8.67433C7.17406 8.6771 7.1738 8.68002 7.17355 8.68312C7.1672 8.76084 7.16668 8.86901 7.16668 9.0667L7.16668 13.4821C7.16671 13.5615 7.16675 13.6564 7.15992 13.7399C7.15201 13.8367 7.13172 13.9754 7.05768 14.1207C6.96181 14.3088 6.80883 14.4618 6.62067 14.5577C6.47537 14.6317 6.33671 14.652 6.2399 14.6599C6.15636 14.6668 6.06152 14.6667 5.98211 14.6667C5.9769 14.6667 5.97175 14.6667 5.96668 14.6667H4.60763C4.25621 14.6667 3.95304 14.6667 3.70333 14.6463C3.43976 14.6248 3.17762 14.5772 2.92536 14.4487C2.54904 14.257 2.24308 13.951 2.05133 13.5747C1.9228 13.3224 1.87526 13.0603 1.85372 12.7967C1.83332 12.547 1.83333 12.2438 1.83334 11.8924L1.83334 7.04341C1.83334 7.02136 1.83332 6.9995 1.8333 6.97782C1.83295 6.65999 1.83265 6.37999 1.90737 6.11304C1.97295 5.87877 2.08071 5.65843 2.22537 5.46285C2.39021 5.23998 2.61142 5.06831 2.86251 4.87345C2.87964 4.86016 2.89691 4.84676 2.91431 4.83322L7.43585 1.31647C7.45202 1.30389 7.4686 1.29087 7.4856 1.27753C7.6636 1.13778 7.88664 0.962671 8.15155 0.890945ZM8.49515 2.18773C8.44504 2.2212 8.37904 2.27203 8.25444 2.36894L3.7329 5.88569C3.40085 6.14395 3.33901 6.19938 3.29735 6.25571C3.24913 6.32091 3.21321 6.39435 3.19135 6.47244C3.17247 6.53991 3.16668 6.62275 3.16668 7.04341V11.8667C3.16668 12.2511 3.1672 12.4992 3.18263 12.6881C3.19743 12.8692 3.22255 12.9364 3.23934 12.9694C3.30326 13.0948 3.40524 13.1968 3.53068 13.2607C3.56365 13.2775 3.63079 13.3026 3.8119 13.3174C4.00079 13.3328 4.24898 13.3334 4.63335 13.3334H5.83335L5.83334 9.04543C5.83332 8.87718 5.8333 8.71332 5.84464 8.57454C5.85709 8.42215 5.88647 8.24233 5.97867 8.06138C6.1065 7.81049 6.31047 7.60652 6.56136 7.47869C6.74231 7.38649 6.92213 7.35711 7.07453 7.34466C7.2133 7.33332 7.37717 7.33334 7.54542 7.33336H9.4546C9.62286 7.33334 9.78672 7.33332 9.9255 7.34466C10.0779 7.35711 10.2577 7.38649 10.4387 7.47869C10.6896 7.60652 10.8935 7.81049 11.0214 8.06138C11.1136 8.24233 11.1429 8.42215 11.1554 8.57454C11.1667 8.71332 11.1667 8.87718 11.1667 9.04544L11.1667 13.3334H12.3667C12.751 13.3334 12.9992 13.3328 13.1881 13.3174C13.3692 13.3026 13.4364 13.2775 13.4693 13.2607C13.5948 13.1968 13.6968 13.0948 13.7607 12.9694C13.7775 12.9364 13.8026 12.8692 13.8174 12.6881C13.8328 12.4992 13.8333 12.2511 13.8333 11.8667V7.04341C13.8333 6.62275 13.8276 6.53991 13.8087 6.47244C13.7868 6.39435 13.7509 6.32091 13.7027 6.25571C13.661 6.19938 13.5992 6.14395 13.2671 5.88569L8.74559 2.36894C8.62098 2.27203 8.55498 2.2212 8.50488 2.18773C8.50318 2.18659 8.50156 2.18552 8.50001 2.1845C8.49847 2.18552 8.49684 2.18659 8.49515 2.18773Z" fill="#3C6CE7"/>
</svg>
