<svg width="20" height="20" viewBox="0 0 20 20" fill="none" xmlns="http://www.w3.org/2000/svg">
<path fill-rule="evenodd" clip-rule="evenodd" d="M9.56444 1.11365C9.84969 1.03642 10.1503 1.03642 10.4356 1.11365C10.7667 1.20331 11.0455 1.42219 11.268 1.59688C11.2893 1.61356 11.31 1.62984 11.3302 1.64556L16.9821 6.0415C17.0039 6.05842 17.0255 6.07518 17.0469 6.0918C17.3608 6.33536 17.6373 6.54995 17.8433 6.82853C18.0241 7.07301 18.1588 7.34844 18.2408 7.64127C18.3342 7.97495 18.3338 8.32496 18.3334 8.72225C18.3334 8.74935 18.3333 8.77668 18.3333 8.80423V14.8655C18.3334 15.3048 18.3334 15.6837 18.3079 15.9959C18.281 16.3253 18.2215 16.653 18.0609 16.9683C17.8212 17.4387 17.4387 17.8212 16.9683 18.0609C16.653 18.2215 16.3253 18.281 15.9959 18.3079C15.6837 18.3334 15.3048 18.3334 14.8655 18.3333H13.1667C13.1603 18.3333 13.1539 18.3333 13.1474 18.3333C13.0481 18.3334 12.9296 18.3334 12.8252 18.3249C12.7041 18.315 12.5308 18.2896 12.3492 18.1971C12.114 18.0773 11.9228 17.886 11.8029 17.6508C11.7104 17.4692 11.685 17.2959 11.6751 17.1749C11.6666 17.0704 11.6666 16.9519 11.6667 16.8526L11.6667 11.3333C11.6667 11.0862 11.666 10.951 11.6581 10.8539C11.6578 10.85 11.6575 10.8463 11.6571 10.8429C11.6537 10.8426 11.65 10.8422 11.6462 10.8419C11.549 10.834 11.4138 10.8333 11.1667 10.8333H8.83335C8.58624 10.8333 8.45103 10.834 8.35388 10.8419C8.35001 10.8422 8.34635 10.8426 8.34289 10.8429C8.34257 10.8463 8.34225 10.85 8.34193 10.8539C8.334 10.951 8.33335 11.0862 8.33335 11.3333L8.33335 16.8526C8.33339 16.9519 8.33344 17.0704 8.3249 17.1749C8.31502 17.2959 8.28965 17.4692 8.19711 17.6508C8.07726 17.886 7.88604 18.0773 7.65084 18.1971C7.46921 18.2896 7.29589 18.315 7.17487 18.3249C7.07044 18.3334 6.9519 18.3334 6.85264 18.3333C6.84612 18.3333 6.83969 18.3333 6.83335 18.3333H5.13454C4.69526 18.3334 4.3163 18.3334 4.00416 18.3079C3.6747 18.281 3.34702 18.2215 3.0317 18.0609C2.5613 17.8212 2.17885 17.4387 1.93916 16.9683C1.7785 16.653 1.71907 16.3253 1.69216 15.9959C1.66665 15.6837 1.66667 15.3048 1.66668 14.8655L1.66668 8.80423C1.66668 8.77668 1.66665 8.74935 1.66662 8.72224C1.66619 8.32496 1.66581 7.97495 1.75922 7.64127C1.84118 7.34844 1.97589 7.07301 2.15671 6.82853C2.36276 6.54994 2.63928 6.33536 2.95314 6.09178C2.97455 6.07517 2.99614 6.05841 3.01789 6.0415L8.66981 1.64556C8.69002 1.62984 8.71075 1.61356 8.732 1.59688C8.95451 1.42219 9.23329 1.20331 9.56444 1.11365ZM9.99393 2.73463C9.9313 2.77647 9.8488 2.84 9.69304 2.96115L4.04112 7.35709C3.62606 7.67991 3.54877 7.7492 3.49669 7.81961C3.43642 7.9011 3.39152 7.99291 3.36419 8.09052C3.34059 8.17485 3.33335 8.27841 3.33335 8.80423V14.8333C3.33335 15.3138 3.334 15.624 3.35329 15.8601C3.37178 16.0865 3.40318 16.1705 3.42418 16.2117C3.50407 16.3685 3.63155 16.496 3.78836 16.5758C3.82956 16.5968 3.91349 16.6282 4.13988 16.6467C4.37599 16.666 4.68622 16.6667 5.16668 16.6667H6.66668L6.66668 11.3068C6.66665 11.0964 6.66663 10.8916 6.6808 10.7181C6.69637 10.5277 6.73309 10.3029 6.84834 10.0767C7.00813 9.76309 7.26309 9.50812 7.5767 9.34833C7.80288 9.23308 8.02766 9.19636 8.21816 9.18079C8.39163 9.16662 8.59646 9.16665 8.80678 9.16667H11.1932C11.4036 9.16665 11.6084 9.16662 11.7819 9.18079C11.9724 9.19636 12.1971 9.23308 12.4233 9.34833C12.7369 9.50812 12.9919 9.76309 13.1517 10.0767C13.2669 10.3029 13.3037 10.5277 13.3192 10.7181C13.3334 10.8916 13.3334 11.0964 13.3333 11.3068L13.3333 16.6667H14.8333C15.3138 16.6667 15.624 16.666 15.8602 16.6467C16.0865 16.6282 16.1705 16.5968 16.2117 16.5758C16.3685 16.496 16.496 16.3685 16.5759 16.2117C16.5968 16.1705 16.6282 16.0865 16.6467 15.8601C16.666 15.624 16.6667 15.3138 16.6667 14.8333V8.80423C16.6667 8.27841 16.6594 8.17486 16.6358 8.09052C16.6085 7.99291 16.5636 7.9011 16.5033 7.81961C16.4513 7.7492 16.374 7.67991 15.9589 7.35709L10.307 2.96115C10.1512 2.84 10.0687 2.77647 10.0061 2.73463C10.004 2.73321 10.0019 2.73187 10 2.7306C9.99808 2.73187 9.99606 2.73321 9.99393 2.73463Z" fill="#A4A4A4"/>
</svg>
