<svg width="16" height="16" viewBox="0 0 16 16" fill="none" xmlns="http://www.w3.org/2000/svg">
<g clip-path="url(#clip0_0_1597)">
<path fill-rule="evenodd" clip-rule="evenodd" d="M8 2.00001C4.6863 2.00001 2.00001 4.6863 2.00001 8C2.00001 11.3137 4.6863 14 8 14C11.3137 14 14 11.3137 14 8C14 4.6863 11.3137 2.00001 8 2.00001ZM0.666672 8C0.666672 3.94992 3.94992 0.666672 8 0.666672C12.0501 0.666672 15.3333 3.94992 15.3333 8C15.3333 12.0501 12.0501 15.3333 8 15.3333C3.94992 15.3333 0.666672 12.0501 0.666672 8ZM7.33334 5.33334C7.33334 4.96515 7.63181 4.66667 8 4.66667H8.00667C8.37486 4.66667 8.67334 4.96515 8.67334 5.33334C8.67334 5.70153 8.37486 6 8.00667 6H8C7.63181 6 7.33334 5.70153 7.33334 5.33334ZM8 7.33334C8.36819 7.33334 8.66667 7.63181 8.66667 8V10.6667C8.66667 11.0349 8.36819 11.3333 8 11.3333C7.63181 11.3333 7.33334 11.0349 7.33334 10.6667V8C7.33334 7.63181 7.63181 7.33334 8 7.33334Z" fill="#2A2A2A"/>
</g>
<defs>
<clipPath id="clip0_0_1597">
<rect width="16" height="16" fill="white"/>
</clipPath>
</defs>
</svg>
