<svg width="102" height="32" viewBox="0 0 102 32" fill="none" xmlns="http://www.w3.org/2000/svg">
<path d="M15.9789 12.3848C16.2705 12.1709 16.5476 11.9312 16.8586 11.7367C18.6715 10.6464 20.6205 11.6071 21.2118 13.3714C21.6314 14.6302 21.3625 15.8015 20.6804 16.9129C20.283 17.5348 19.7848 18.0862 19.2061 18.5443C18.4917 19.1276 17.774 19.7075 17.0255 20.2454C16.1928 20.8416 15.8801 20.8756 15.0328 20.2697C13.923 19.4743 12.8084 18.6739 11.8882 17.6484C11.2285 16.9519 10.7967 16.0709 10.6505 15.1227C10.503 14.0826 10.7023 13.1106 11.4265 12.3005C12.4358 11.1665 13.9263 10.9899 15.211 11.8145C15.4848 11.9862 15.7343 12.2001 15.9789 12.3848Z" fill="#E26584"/>
<path d="M7.91155 14.3774C7.68798 12.8238 7.98932 11.3949 9.07639 10.2057C10.5912 8.54675 12.8285 8.2762 14.7467 9.49126C14.9087 9.59818 15.0707 9.71321 15.2327 9.83147V7.70107C15.2327 4.55325 12.6244 2 9.40041 2C6.17645 2 3.56812 4.55325 3.56812 7.70107V15.202H8.07356C8.00101 14.9311 7.94688 14.6556 7.91155 14.3774Z" fill="#53C8B1"/>
<path d="M3.5849 24.2795C3.5849 27.4386 6.19323 30 9.41719 30C12.6412 30 15.2495 27.4386 15.2495 24.2795V23.0709C14.9866 22.9387 14.7351 22.7848 14.4978 22.6108C12.8307 21.4379 11.1588 20.2552 9.77523 18.7437C9.22794 18.1545 8.7764 17.4832 8.43704 16.7542H3.5849V24.2795Z" fill="#034B7B"/>
<path d="M23.0871 17.6582C22.4876 18.5786 21.7385 19.3923 20.8708 20.0657C19.8015 20.9259 18.7258 21.7829 17.6047 22.5752C17.3487 22.7646 17.0778 22.9331 16.7947 23.079V24.2795C16.7947 27.4386 19.3981 30 22.6108 30C25.8234 30 28.4285 27.4386 28.4285 24.2795V16.7542H23.5828C23.4356 17.0651 23.2701 17.367 23.0871 17.6582Z" fill="#53C8B1"/>
<path d="M28.4318 7.70107C28.4318 4.55325 25.8267 2 22.6141 2C19.4015 2 16.798 4.55325 16.798 7.70107V9.77639C16.9811 9.64192 17.1658 9.51232 17.3602 9.39729C20.0771 7.79341 22.9981 9.20612 23.8826 11.8015C24.2653 12.9005 24.2835 14.0935 23.9345 15.2037H28.4318V7.70107Z" fill="#034B7B"/>
<path d="M38.3028 10.2175H36V9H41.9902V10.2175H39.6943V17.1191H38.3028V10.2175Z" fill="#034B7B"/>
<path d="M42.8529 9H48.0152V10.2175H44.2374V12.4473H47.0411V13.6683H44.2374V15.8981H48.0152V17.1191H42.8529V9Z" fill="#034B7B"/>
<path d="M48.9983 9H50.3897V15.8981H54.0562V17.1191H48.9983V9Z" fill="#034B7B"/>
<path d="M54.7587 9H59.9209V10.2175H56.1432V12.4473H58.9504V13.6683H56.1432V15.8981H59.9209V17.1191H54.7587V9Z" fill="#034B7B"/>
<path d="M60.9166 9H62.308V12.3673H65.9745V9H67.3659V17.1191H65.9745V13.5883H62.2871V17.1191H60.8957L60.9166 9Z" fill="#034B7B"/>
<path d="M68.6393 9H73.7877V10.2175H70.0238V12.4473H72.8311V13.6683H70.0238V15.8981H73.7877V17.1191H68.6393V9Z" fill="#034B7B"/>
<path d="M77.6135 9H78.9562L82.0035 17.1191H80.5946L79.8989 15.2476H76.6708L75.9751 17.1191H74.5558L77.6135 9ZM79.5128 14.0301L78.2814 10.5793L77.0465 14.0301H79.5128Z" fill="#034B7B"/>
<path d="M83.0985 9H84.49V15.8981H88.1564V17.1191H83.0985V9Z" fill="#034B7B"/>
<path d="M89.9616 10.2175H87.6623V9H93.6524V10.2175H91.3496V17.1191H89.9582L89.9616 10.2175Z" fill="#034B7B"/>
<path d="M94.5229 9H95.9143V12.3673H99.5808V9H100.955V17.1191H99.5808V13.5883H95.9109V17.1191H94.5194L94.5229 9Z" fill="#034B7B"/>
<path d="M38.143 19.5158H36.9011V18.9244H40.1397V19.5332H38.8874V22.984H38.143V19.5158Z" fill="#53C8B1"/>
<path d="M40.5991 18.9244H41.3435V20.6081H43.3194V18.9244H44.0603V22.984H43.3194V21.2168H41.3435V22.984H40.5991V18.9244Z" fill="#53C8B1"/>
<path d="M46.2949 18.9244H47.015L48.6569 22.984H47.8986L47.5229 22.0482H45.7836L45.4113 22.984H44.6635L46.2949 18.9244ZM47.3176 21.4395L46.6532 19.7002L45.9888 21.4395H47.3176Z" fill="#53C8B1"/>
<path d="M49.246 18.9244H49.9904V22.984H49.246V18.9244Z" fill="#53C8B1"/>
<path d="M50.6965 18.9244H51.4409V22.3717H53.4167V22.984H50.6965V18.9244Z" fill="#53C8B1"/>
<path d="M55.326 18.9244H56.0496L57.688 22.984H56.9297L56.554 22.0482H54.8147L54.446 22.984H53.6807L55.326 18.9244ZM56.3487 21.4395L55.6843 19.7002L55.0199 21.4395H56.3487Z" fill="#53C8B1"/>
<path d="M58.2756 18.9244H58.9714L60.8915 21.7525V18.9244H61.6394V22.984H60.9437L59.0235 20.1489V22.984H58.2756V18.9244Z" fill="#53C8B1"/>
<path d="M62.3546 18.9244H63.746C64.1469 18.914 64.5448 18.9974 64.9078 19.1679C65.225 19.318 65.4894 19.5605 65.6662 19.8636C65.8482 20.1895 65.9395 20.5583 65.9306 20.9315C65.9505 21.2144 65.9078 21.4982 65.8056 21.7628C65.7034 22.0273 65.5441 22.2661 65.3392 22.4621C64.8692 22.8344 64.2784 23.0202 63.6799 22.9839H62.3685L62.3546 18.9244ZM63.6799 22.3717C63.8792 22.3851 64.0791 22.3584 64.2679 22.2933C64.4567 22.2282 64.6305 22.1259 64.7791 21.9925C64.9127 21.8515 65.0158 21.6846 65.0822 21.5021C65.1487 21.3196 65.1769 21.1254 65.1653 20.9315C65.1708 20.6787 65.1122 20.4285 64.9948 20.2045C64.8841 19.9959 64.7149 19.8242 64.5078 19.7105C64.2768 19.5877 64.018 19.5266 63.7564 19.5331H63.1025V22.3717H63.6799Z" fill="#53C8B1"/>
</svg>
