<svg width="24" height="24" viewBox="0 0 24 24" fill="none" xmlns="http://www.w3.org/2000/svg">
<path d="M4.5 18.5455L7.90077 14.973C8.50343 14.3399 9.50926 14.3275 10.1273 14.9456C10.7348 15.553 11.7197 15.553 12.3271 14.9456L14.813 12.4597C15.5941 11.6786 16.8604 11.6787 17.6414 12.4597L20 14.8183M7 20H17C18.6569 20 20 18.6569 20 17V7.00001C20 5.34316 18.6569 4.00002 17 4.00002H7C5.34315 4.00002 4 5.34316 4 7.00001V17C4 18.6569 5.34315 20 7 20ZM13 9.04549C13 9.87391 12.3284 10.5455 11.5 10.5455C10.6716 10.5455 10 9.87391 10 9.04549C10 8.21706 10.6716 7.54549 11.5 7.54549C12.3284 7.54549 13 8.21706 13 9.04549Z" stroke="#838383" stroke-width="1.5" stroke-linecap="round"/>
</svg>
