<svg width="20" height="20" viewBox="0 0 20 20" fill="none" xmlns="http://www.w3.org/2000/svg">
<path fill-rule="evenodd" clip-rule="evenodd" d="M7.29892 1.66666H12.7011C13.3719 1.66665 13.9255 1.66665 14.3765 1.70349C14.8449 1.74176 15.2755 1.8239 15.68 2.02998C16.3072 2.34955 16.8171 2.85949 17.1367 3.4867C17.3428 3.89114 17.4249 4.32173 17.4632 4.79014C17.5 5.24113 17.5 5.79476 17.5 6.46556V17.5C17.5 17.8134 17.3241 18.1004 17.0448 18.2426C16.7655 18.3848 16.43 18.3583 16.1765 18.1739L14.3991 16.8813L12.8122 18.1507C12.519 18.3853 12.1052 18.3948 11.8015 18.1739L10 16.8637L8.19848 18.1739C7.89481 18.3948 7.48096 18.3853 7.18776 18.1507L5.60092 16.8813L3.82348 18.1739C3.56999 18.3583 3.23449 18.3848 2.95519 18.2426C2.67588 18.1004 2.5 17.8134 2.5 17.5L2.5 6.46558C2.49999 5.79477 2.49998 5.24114 2.53683 4.79014C2.5751 4.32173 2.65724 3.89114 2.86331 3.4867C3.18289 2.85949 3.69283 2.34955 4.32003 2.02998C4.72448 1.8239 5.15506 1.74176 5.62348 1.70349C6.07448 1.66665 6.62811 1.66665 7.29892 1.66666ZM5.7592 3.36462C5.39385 3.39447 5.20702 3.44858 5.07668 3.51499C4.76308 3.67478 4.50811 3.92974 4.34832 4.24335C4.28192 4.37368 4.22781 4.56052 4.19796 4.92586C4.16732 5.30094 4.16667 5.78618 4.16667 6.5V15.8635L5.13486 15.1594C5.43852 14.9385 5.85238 14.948 6.14558 15.1826L7.73241 16.4521L9.50986 15.1594C9.80207 14.9469 10.1979 14.9469 10.4901 15.1594L12.2676 16.4521L13.8544 15.1826C14.1476 14.948 14.5615 14.9385 14.8651 15.1594L15.8333 15.8635V6.5C15.8333 5.78618 15.8327 5.30094 15.802 4.92586C15.7722 4.56052 15.7181 4.37368 15.6517 4.24335C15.4919 3.92974 15.2369 3.67478 14.9233 3.51499C14.793 3.44858 14.6061 3.39447 14.2408 3.36462C13.8657 3.33398 13.3805 3.33333 12.6667 3.33333H7.33333C6.61952 3.33333 6.13427 3.33398 5.7592 3.36462Z" fill="#A4A4A4"/>
</svg>
