<svg width="16" height="16" viewBox="0 0 16 16" fill="none" xmlns="http://www.w3.org/2000/svg">
<path fill-rule="evenodd" clip-rule="evenodd" d="M7.66665 2.66665C4.90522 2.66665 2.66665 4.90522 2.66665 7.66665C2.66665 10.4281 4.90522 12.6666 7.66665 12.6666C9.00871 12.6666 10.2273 12.1379 11.1254 11.2773C11.1461 11.2486 11.1694 11.2211 11.1953 11.1952C11.2212 11.1694 11.2486 11.1461 11.2774 11.1253C12.1379 10.2272 12.6666 9.00868 12.6666 7.66665C12.6666 4.90522 10.4281 2.66665 7.66665 2.66665ZM12.5917 11.6488C13.4724 10.5609 14 9.1754 14 7.66665C14 4.16884 11.1645 1.33331 7.66665 1.33331C4.16884 1.33331 1.33331 4.16884 1.33331 7.66665C1.33331 11.1645 4.16884 14 7.66665 14C9.17542 14 10.561 13.4724 11.6489 12.5916L13.5286 14.4714C13.7889 14.7317 14.211 14.7317 14.4714 14.4714C14.7317 14.211 14.7317 13.7889 14.4714 13.5286L12.5917 11.6488Z" fill="#464646"/>
</svg>
