<svg width="17" height="16" viewBox="0 0 17 16" fill="none" xmlns="http://www.w3.org/2000/svg">
<path fill-rule="evenodd" clip-rule="evenodd" d="M8.5 5.33331C7.02724 5.33331 5.83333 6.52722 5.83333 7.99998C5.83333 9.47274 7.02724 10.6666 8.5 10.6666C9.97276 10.6666 11.1667 9.47274 11.1667 7.99998C11.1667 6.52722 9.97276 5.33331 8.5 5.33331ZM7.16667 7.99998C7.16667 7.2636 7.76362 6.66665 8.5 6.66665C9.23638 6.66665 9.83333 7.2636 9.83333 7.99998C9.83333 8.73636 9.23638 9.33331 8.5 9.33331C7.76362 9.33331 7.16667 8.73636 7.16667 7.99998Z" fill="#3C6CE7"/>
<path fill-rule="evenodd" clip-rule="evenodd" d="M6.61544 2.57013C6.56766 2.86017 6.23196 2.99922 5.99308 2.82792C4.23663 1.56834 2.06835 3.73664 3.32792 5.49308C3.49922 5.73196 3.36017 6.06766 3.07013 6.11544C0.937482 6.46678 0.937478 9.5332 3.07013 9.88455C3.36017 9.93233 3.49922 10.268 3.32792 10.5069C2.06834 12.2634 4.23664 14.4316 5.99308 13.1721C6.23196 13.0008 6.56766 13.1398 6.61544 13.4299C6.96678 15.5625 10.0332 15.5625 10.3845 13.4299C10.4323 13.1398 10.768 13.0008 11.0069 13.1721C12.7634 14.4316 14.9316 12.2634 13.6721 10.5069C13.5008 10.268 13.6398 9.93233 13.9299 9.88455C16.0625 9.5332 16.0625 6.46678 13.9299 6.11544C13.6398 6.06766 13.5008 5.73196 13.6721 5.49308C14.9316 3.73664 12.7634 1.56834 11.0069 2.82792C10.768 2.99922 10.4323 2.86017 10.3845 2.57013C10.0332 0.437482 6.96678 0.437478 6.61544 2.57013ZM4.51848 4.88422C4.55687 4.95271 4.58997 5.02254 4.61798 5.09328C4.62164 5.10251 4.62521 5.11176 4.62869 5.12103C4.94536 5.96345 4.54643 6.92654 3.72683 7.29831C3.71782 7.30239 3.70875 7.30641 3.69964 7.31036C3.62981 7.34057 3.55703 7.36654 3.48145 7.38783C3.41849 7.40556 3.3536 7.42004 3.28687 7.43104C2.64301 7.53711 2.64301 8.46288 3.28687 8.56895C3.3536 8.57994 3.41849 8.59443 3.48145 8.61216C3.55703 8.63345 3.62981 8.65942 3.69964 8.68963C3.70875 8.69358 3.71782 8.69759 3.72683 8.70168C4.54643 9.07344 4.94536 10.0365 4.62869 10.879C4.62676 10.8841 4.6248 10.8892 4.62281 10.8944C4.62122 10.8985 4.61961 10.9026 4.61798 10.9067C4.58997 10.9774 4.55687 11.0473 4.51848 11.1158C4.4865 11.1728 4.45085 11.229 4.41144 11.2839C4.03117 11.8142 4.68579 12.4688 5.21607 12.0885C5.27103 12.0491 5.32716 12.0135 5.38422 11.9815C5.45271 11.9431 5.52254 11.91 5.59328 11.882C5.60251 11.8783 5.61176 11.8748 5.62103 11.8713C6.46345 11.5546 7.42654 11.9536 7.79831 12.7732C7.80239 12.7822 7.80641 12.7912 7.81035 12.8003C7.84057 12.8702 7.86654 12.943 7.88782 13.0185C7.90556 13.0815 7.92004 13.1464 7.93104 13.2131C8.03711 13.857 8.96288 13.857 9.06895 13.2131C9.07994 13.1464 9.09443 13.0815 9.11216 13.0185C9.13345 12.943 9.15942 12.8702 9.18963 12.8003C9.19358 12.7912 9.19759 12.7822 9.20168 12.7732C9.57344 11.9536 10.5365 11.5546 11.379 11.8713C11.3882 11.8748 11.3975 11.8783 11.4067 11.882C11.4774 11.91 11.5473 11.9431 11.6158 11.9815C11.6728 12.0135 11.729 12.0491 11.7839 12.0885C12.3142 12.4688 12.9688 11.8142 12.5885 11.2839C12.5491 11.229 12.5135 11.1728 12.4815 11.1158C12.4431 11.0473 12.41 10.9774 12.382 10.9067C12.3783 10.8975 12.3748 10.8882 12.3713 10.879C12.0546 10.0365 12.4536 9.07344 13.2732 8.70168C13.2822 8.69759 13.2912 8.69358 13.3003 8.68963C13.3702 8.65942 13.443 8.63345 13.5185 8.61216C13.5815 8.59443 13.6464 8.57994 13.7131 8.56895C14.357 8.46288 14.357 7.53711 13.7131 7.43104C13.6464 7.42004 13.5815 7.40556 13.5185 7.38782C13.443 7.36654 13.3702 7.34057 13.3003 7.31036C13.2912 7.30641 13.2822 7.30239 13.2732 7.29831C12.4536 6.92654 12.0546 5.96345 12.3713 5.12103C12.3748 5.11176 12.3783 5.10251 12.382 5.09328C12.41 5.02254 12.4431 4.95271 12.4815 4.88422C12.5135 4.82716 12.5491 4.77103 12.5885 4.71607C12.9688 4.18579 12.3142 3.53117 11.7839 3.91144C11.729 3.95086 11.6728 3.9865 11.6158 4.01848C11.5473 4.05687 11.4774 4.08997 11.4067 4.11798C11.3975 4.12164 11.3882 4.12521 11.379 4.12869C10.5365 4.44536 9.57344 4.04643 9.20168 3.22683C9.19759 3.21782 9.19358 3.20875 9.18963 3.19964C9.15942 3.12981 9.13345 3.05703 9.11216 2.98145C9.09443 2.91849 9.07994 2.8536 9.06895 2.78687C8.96288 2.14301 8.03711 2.14301 7.93104 2.78687C7.92004 2.8536 7.90556 2.91849 7.88782 2.98145C7.86654 3.05703 7.84057 3.12981 7.81036 3.19964C7.80641 3.20875 7.80239 3.21782 7.79831 3.22683C7.42654 4.04643 6.46345 4.44536 5.62103 4.12869C5.61176 4.12521 5.60251 4.12164 5.59328 4.11798C5.52254 4.08997 5.45271 4.05687 5.38422 4.01848C5.32716 3.9865 5.27103 3.95085 5.21607 3.91144C4.68579 3.53117 4.03117 4.18579 4.41144 4.71607C4.45085 4.77103 4.4865 4.82716 4.51848 4.88422Z" fill="#3C6CE7"/>
</svg>
