<svg width="17" height="16" viewBox="0 0 17 16" fill="none" xmlns="http://www.w3.org/2000/svg">
<path fill-rule="evenodd" clip-rule="evenodd" d="M8.49999 2.66665C7.21133 2.66665 6.16666 3.71132 6.16666 4.99998C6.16666 6.28864 7.21133 7.33331 8.49999 7.33331C9.78866 7.33331 10.8333 6.28864 10.8333 4.99998C10.8333 3.71132 9.78866 2.66665 8.49999 2.66665ZM4.83333 4.99998C4.83333 2.97494 6.47495 1.33331 8.49999 1.33331C10.525 1.33331 12.1667 2.97494 12.1667 4.99998C12.1667 7.02502 10.525 8.66665 8.49999 8.66665C6.47495 8.66665 4.83333 7.02502 4.83333 4.99998ZM6.71751 9.66662C6.75555 9.66663 6.79415 9.66664 6.83333 9.66664H10.1667C10.2058 9.66664 10.2444 9.66663 10.2825 9.66662C11.1007 9.66631 11.6593 9.66611 12.1343 9.81018C13.1996 10.1333 14.0333 10.967 14.3565 12.0324C14.5005 12.5073 14.5003 13.066 14.5 13.8842C14.5 13.9222 14.5 13.9608 14.5 14C14.5 14.3682 14.2015 14.6666 13.8333 14.6666C13.4651 14.6666 13.1667 14.3682 13.1667 14C13.1667 13.0211 13.1594 12.6794 13.0805 12.4194C12.8866 11.7802 12.3864 11.28 11.7472 11.0861C11.4872 11.0072 11.1455 11 10.1667 11H6.83333C5.85445 11 5.5128 11.0072 5.25276 11.0861C4.61356 11.28 4.11335 11.7802 3.91945 12.4194C3.84056 12.6795 3.83333 13.0211 3.83333 14C3.83333 14.3682 3.53485 14.6666 3.16666 14.6666C2.79847 14.6666 2.49999 14.3682 2.49999 14C2.49999 13.9608 2.49998 13.9222 2.49997 13.8842C2.49966 13.066 2.49946 12.5073 2.64353 12.0324C2.96669 10.967 3.80037 10.1333 4.86571 9.81018C5.34065 9.66611 5.89932 9.66631 6.71751 9.66662Z" fill="#3C6CE7"/>
</svg>
